<svg width="267" height="116" viewBox="0 0 267 116" fill="none" xmlns="http://www.w3.org/2000/svg">
  <path d="M246.471 13.5724H250.472L255.273 19.5638H264.113L264.114 29M246.471 13.5724H236.691M246.471 13.5724V7.21223L242.915 5H224.244L222.021 9.60881H202.256M219.295 103.391H199.529L197.307 108H175.08L166.278 93.4362H152.452L147.966 83H126.531M51.0666 9.57239H55.0675L59.8685 15.5638H68.7087L81.107 28V40.5L86.5903 46H116.063L126.033 56V94L116.063 101V109.5M51.0666 9.57239H41.2868M51.0666 9.57239V3.21223L47.5103 1H28.8398L26.6171 5.60881H6.85189M124.235 30.5724H120.234L115.433 36.5638H106.593L106.592 46M124.235 30.5724H134.015M124.235 30.5724V24.2122L127.791 22H146.462L148.684 26.6088H168.45M266.445 31.6622C266.445 33.1325 265.253 34.3244 263.783 34.3244C262.313 34.3244 261.121 33.1325 261.121 31.6622C261.121 30.1919 262.313 29 263.783 29C265.253 29 266.445 30.1919 266.445 31.6622ZM232.54 13.7154C232.54 12.5125 233.515 11.5373 234.718 11.5373C235.921 11.5373 236.896 12.5125 236.896 13.7154C236.896 14.9184 235.921 15.8936 234.718 15.8936C233.515 15.8936 232.54 14.9184 232.54 13.7154ZM196.318 9.45391C196.318 7.7163 197.727 6.30769 199.464 6.30769C201.202 6.30769 202.61 7.7163 202.61 9.45391C202.61 11.1915 201.202 12.6001 199.464 12.6001C197.727 12.6001 196.318 11.1915 196.318 9.45391ZM112.917 112.146C112.917 110.409 114.326 109 116.063 109C117.801 109 119.209 110.409 119.209 112.146C119.209 113.884 117.801 115.292 116.063 115.292C114.326 115.292 112.917 113.884 112.917 112.146ZM225.232 103.546C225.232 105.284 223.824 106.692 222.086 106.692C220.349 106.692 218.94 105.284 218.94 103.546C218.94 101.808 220.349 100.4 222.086 100.4C223.824 100.4 225.232 101.808 225.232 103.546ZM37.1354 9.71544C37.1354 8.51248 38.1105 7.53729 39.3134 7.53729C40.5163 7.53729 41.4915 8.51248 41.4915 9.71544C41.4915 10.9184 40.5163 11.8936 39.3134 11.8936C38.1105 11.8936 37.1354 10.9184 37.1354 9.71544ZM0.914062 5.45391C0.914062 3.7163 2.32261 2.30769 4.06014 2.30769C5.79767 2.30769 7.20623 3.7163 7.20623 5.45391C7.20623 7.19152 5.79767 8.60013 4.06014 8.60013C2.32261 8.60013 0.914062 7.19152 0.914062 5.45391ZM138.166 30.7154C138.166 29.5125 137.191 28.5373 135.988 28.5373C134.785 28.5373 133.81 29.5125 133.81 30.7154C133.81 31.9184 134.785 32.8936 135.988 32.8936C137.191 32.8936 138.166 31.9184 138.166 30.7154ZM174.387 26.4539C174.387 24.7163 172.979 23.3077 171.241 23.3077C169.504 23.3077 168.095 24.7163 168.095 26.4539C168.095 28.1915 169.504 29.6001 171.241 29.6001C172.979 29.6001 174.387 28.1915 174.387 26.4539Z" stroke="url(#paint0_linear_1051_176)"/>
  <defs>
    <linearGradient id="paint0_linear_1051_176" x1="133.879" y1="1" x2="133.879" y2="98.9649" gradientUnits="userSpaceOnUse">
      <stop stop-color="#83AEFB"/>
      <stop offset="1" stop-color="#EAFF6A"/>
    </linearGradient>
  </defs>
</svg>
