<svg width="328" height="320" viewBox="0 0 328 320" fill="none" xmlns="http://www.w3.org/2000/svg">
<path d="M7 13.5V175.5L33.5 192.5H130H156.5M156.5 192.5H203L225.714 224H316.5M156.5 192.5V256.5M156.5 192.5V118.5L192.5 88.2426H236.129L246.574 76.9151V44M156.5 256.5H203L225.714 270V302.5L243.654 313.517H279.916L286.512 298.842H316M156.5 256.5V318" stroke="url(#paint0_linear_838_1289)" stroke-width="2"/>
<circle cx="7" cy="7" r="6.45379" stroke="url(#paint1_linear_838_1289)" stroke-width="1.09243"/>
<path d="M157.5 319H22.5542L4 305.5V232.5" stroke="url(#paint2_linear_838_1289)" stroke-width="2"/>
<circle cx="4" cy="229" r="3.45379" stroke="url(#paint3_linear_838_1289)" stroke-width="1.09243"/>
<path d="M326.454 298C326.454 301.012 324.012 303.454 321 303.454C317.988 303.454 315.546 301.012 315.546 298C315.546 294.988 317.988 292.546 321 292.546C324.012 292.546 326.454 294.988 326.454 298Z" stroke="url(#paint4_linear_838_1289)" stroke-width="1.09243"/>
<path d="M327.454 224C327.454 227.012 325.012 229.454 322 229.454C318.988 229.454 316.546 227.012 316.546 224C316.546 220.988 318.988 218.546 322 218.546C325.012 218.546 327.454 220.988 327.454 224Z" stroke="url(#paint5_linear_838_1289)" stroke-width="1.09243"/>
<path d="M225 282L256.5 282" stroke="#E9FF63" stroke-width="1.36553"/>
<circle cx="247" cy="39" r="5.45379" stroke="url(#paint6_linear_838_1289)" stroke-width="1.09243"/>
<path d="M261.454 282C261.454 283.355 260.355 284.454 259 284.454C257.645 284.454 256.546 283.355 256.546 282C256.546 280.645 257.645 279.546 259 279.546C260.355 279.546 261.454 280.645 261.454 282Z" stroke="url(#paint7_linear_838_1289)" stroke-width="1.09243"/>
<defs>
<linearGradient id="paint0_linear_838_1289" x1="161.982" y1="13.5" x2="161.982" y2="274.5" gradientUnits="userSpaceOnUse">
<stop stop-color="#F2BAFF"/>
<stop offset="1" stop-color="#E9FF63"/>
</linearGradient>
<linearGradient id="paint1_linear_838_1289" x1="7.01049" y1="0" x2="7.01047" y2="12" gradientUnits="userSpaceOnUse">
<stop stop-color="#F2BAFF"/>
<stop offset="1" stop-color="#E9FF63"/>
</linearGradient>
<linearGradient id="paint2_linear_838_1289" x1="80.8651" y1="232.5" x2="80.865" y2="306.643" gradientUnits="userSpaceOnUse">
<stop stop-color="#F2BAFF"/>
<stop offset="1" stop-color="#E9FF63"/>
</linearGradient>
<linearGradient id="paint3_linear_838_1289" x1="4.006" y1="225" x2="4.00598" y2="231.857" gradientUnits="userSpaceOnUse">
<stop stop-color="#F2BAFF"/>
<stop offset="1" stop-color="#E9FF63"/>
</linearGradient>
<linearGradient id="paint4_linear_838_1289" x1="321.009" y1="292" x2="321.009" y2="302.286" gradientUnits="userSpaceOnUse">
<stop stop-color="#F2BAFF"/>
<stop offset="1" stop-color="#E9FF63"/>
</linearGradient>
<linearGradient id="paint5_linear_838_1289" x1="322.009" y1="218" x2="322.009" y2="228.286" gradientUnits="userSpaceOnUse">
<stop stop-color="#F2BAFF"/>
<stop offset="1" stop-color="#E9FF63"/>
</linearGradient>
<linearGradient id="paint6_linear_838_1289" x1="247.009" y1="33" x2="247.009" y2="43.2857" gradientUnits="userSpaceOnUse">
<stop stop-color="#F2BAFF"/>
<stop offset="1" stop-color="#E9FF63"/>
</linearGradient>
<linearGradient id="paint7_linear_838_1289" x1="259.004" y1="279" x2="259.004" y2="284.143" gradientUnits="userSpaceOnUse">
<stop stop-color="#F2BAFF"/>
<stop offset="1" stop-color="#E9FF63"/>
</linearGradient>
</defs>
</svg>
