<svg width="275" height="378" viewBox="0 0 275 378" fill="none" xmlns="http://www.w3.org/2000/svg">
<path d="M11.9998 205.522L40.5398 205.522L55.5 168.836L112 168.836L120.835 160V142M240.999 276.5L240.999 292.926L222 300.5H159.5L146.5 320V354L119.448 370.5H70M266.001 106.5V61.5499L243.001 38.5499L169.144 38.5499L140.901 1.86359L78 1.86359L57.5 22.3636H21M192.5 39V76L167 97V114.5M220.5 38.5V19.5L229.5 10.5H260.5M183 83L190 98H204L212 106V136.5M96 32.9899L99.9316 24.5851L107.779 24.5923L112.268 20.112L112.284 3.01498M86 169.5V187L72 196.5V224.5L80.5 233V246M196.5 302V315L188 323.5V351.5L202 361H241.5M1 205.5C1 209.09 3.91015 212 7.5 212C11.0899 212 14 209.09 14 205.5C14 201.91 11.0899 199 7.5 199C3.91015 199 1 201.91 1 205.5ZM58 370C58 373.866 61.134 377 65 377C68.866 377 72 373.866 72 370C72 366.134 68.866 363 65 363C61.134 363 58 366.134 58 370ZM240 361C240 364.866 243.134 368 247 368C250.866 368 254 364.866 254 361C254 357.134 250.866 354 247 354C243.134 354 240 357.134 240 361ZM115 137.5C115 141.09 117.91 144 121.5 144C125.09 144 128 141.09 128 137.5C128 133.91 125.09 131 121.5 131C117.91 131 115 133.91 115 137.5ZM234 271C234 274.866 237.134 278 241 278C244.866 278 248 274.866 248 271C248 267.134 244.866 264 241 264C237.134 264 234 267.134 234 271ZM162 119C162 121.761 164.239 124 167 124C169.761 124 172 121.761 172 119C172 116.239 169.761 114 167 114C164.239 114 162 116.239 162 119ZM260 11C260 13.7614 262.239 16 265 16C267.761 16 270 13.7614 270 11C270 8.2386 267.761 6.00002 265 6.00002C262.239 6.00002 260 8.2386 260 11ZM208 140C208 142.209 209.791 144 212 144C214.209 144 216 142.209 216 140C216 137.791 214.209 136 212 136C209.791 136 208 137.791 208 140ZM76 250C76 252.761 78.2386 255 81 255C83.7614 255 86 252.761 86 250C86 247.239 83.7614 245 81 245C78.2386 245 76 247.239 76 250ZM91 36C91 38.2092 92.7909 40 95 40C97.2091 40 99 38.2092 99 36C99 33.7909 97.2091 32 95 32C92.7909 32 91 33.7909 91 36ZM10 23C10 19.6863 12.6863 17 16 17C19.3137 17 22 19.6863 22 23C22 26.3137 19.3137 29 16 29C12.6863 29 10 26.3137 10 23ZM258 114C258 109.582 261.582 106 266 106C270.418 106 274 109.582 274 114C274 118.418 270.418 122 266 122C261.582 122 258 118.418 258 114Z" stroke="url(#paint0_linear_1041_2598)" stroke-width="2"/>
<defs>
<linearGradient id="paint0_linear_1041_2598" x1="137.705" y1="1.86359" x2="137.704" y2="323.409" gradientUnits="userSpaceOnUse">
<stop stop-color="#F2BAFF"/>
<stop offset="1" stop-color="#E9FF63"/>
</linearGradient>
</defs>
</svg>
