<svg width="98" height="21" viewBox="0 0 98 21" fill="none" xmlns="http://www.w3.org/2000/svg">
  <g clip-path="url(#clip0_704_1469)">
    <path d="M4.50057 0H98L93.4993 20.6316H0L4.50057 0Z" fill="black"/>
    <path d="M12.7862 15.0279C12.2934 17.3203 10.7797 18.4692 8.24525 18.4745C6.12732 18.4745 5.06836 17.6706 5.06836 16.0627C5.06836 15.7496 5.10942 15.4047 5.19156 15.0279L7.24204 5.47629C7.73486 3.18389 9.24555 2.03769 11.7742 2.03769C13.898 2.03769 14.9599 2.84161 14.9599 4.4495C14.9599 4.76256 14.9188 5.10484 14.8367 5.47629L14.3527 7.73684H11.4222L11.9062 5.47629C12.0353 4.88197 11.8123 4.58215 11.2373 4.57685H11.2198C10.6507 4.57685 10.3016 4.87665 10.1725 5.47629L8.12207 15.0279C7.99298 15.6276 8.21593 15.9274 8.79089 15.9274C9.37169 15.9274 9.72665 15.6276 9.85572 15.0279L10.3397 12.7674H13.2702L12.7862 15.0279Z" fill="white"/>
    <path d="M21.337 15.0279C20.8442 17.3203 19.3305 18.4692 16.796 18.4745C14.6781 18.4745 13.6191 17.6706 13.6191 16.0627C13.6191 15.7496 13.6602 15.4047 13.7423 15.0279L15.7928 5.47629C16.2856 3.18389 17.7963 2.03769 20.325 2.03769C22.4488 2.03769 23.5107 2.84161 23.5107 4.4495C23.5107 4.76256 23.4696 5.10484 23.3875 5.47629L21.337 15.0279ZM20.4569 5.47629C20.586 4.88197 20.3631 4.58215 19.7881 4.57685H19.7705C19.2015 4.57685 18.8524 4.87665 18.7233 5.47629L16.6728 15.0279C16.5438 15.6276 16.7667 15.9274 17.3416 15.9274C17.9225 15.9274 18.2774 15.6276 18.4065 15.0279L20.4569 5.47629Z" fill="white"/>
    <path d="M25.2934 2.28445H29.3505C31.304 2.28976 32.2809 3.07776 32.2809 4.64849C32.2809 4.97218 32.237 5.33302 32.1488 5.73101L30.204 14.7812C29.7112 17.0683 28.2356 18.2145 25.7774 18.2198H21.8701L25.2934 2.28445ZM27.6783 4.8236L25.3462 15.6807H26.2175C26.7924 15.6807 27.1444 15.3808 27.2735 14.7812L29.2184 5.73101C29.3474 5.12607 29.1246 4.8236 28.5496 4.8236H27.6783Z" fill="white"/>
    <path d="M34.1078 2.28445H41.0072L40.4615 4.8236H36.4928L35.6037 8.97857H39.0182L38.464 11.5257H35.0495L34.1605 15.6807H38.1295L37.584 18.2198H30.6846L34.1078 2.28445Z" fill="white"/>
    <path d="M41.9535 2.28445H45.7992C47.753 2.28976 48.7299 3.07776 48.7299 4.64849C48.7299 4.97218 48.6857 5.33302 48.5978 5.73101L48.0963 8.07914C47.7854 9.52248 46.9433 10.4564 45.5705 10.881L46.82 18.2198H43.6257L43.0887 11.3665H42.9304L41.4607 18.2198H38.5303L41.9535 2.28445ZM44.3385 4.8236L43.4497 8.97857H43.8017C44.1185 8.97857 44.3266 8.96265 44.4263 8.93082C44.8254 8.79816 45.0718 8.51426 45.1655 8.07914L45.6674 5.73101C45.7964 5.12607 45.5733 4.8236 44.9986 4.8236H44.3385Z" fill="white"/>
    <path d="M50.7507 2.28445H53.6811L52.2466 8.97857H53.9805L55.4147 2.28445H58.3454L54.9219 18.2198H51.9914L53.426 11.5257H51.6921L50.2579 18.2198H47.3271L50.7507 2.28445Z" fill="white"/>
    <path d="M64.4238 15.0279C63.931 17.3203 62.4174 18.4692 59.8829 18.4745C57.7649 18.4745 56.7061 17.6706 56.7061 16.0627C56.7061 15.7496 56.7469 15.4047 56.8291 15.0279L58.8795 5.47629C59.3723 3.18389 60.8832 2.03769 63.4117 2.03769C65.5356 2.03769 66.5976 2.84161 66.5976 4.4495C66.5976 4.76256 66.5565 5.10484 66.4742 5.47629L64.4238 15.0279ZM63.5438 5.47629C63.6728 4.88197 63.4497 4.58215 62.875 4.57685H62.8572C62.2881 4.57685 61.9392 4.87665 61.8102 5.47629L59.7595 15.0279C59.6306 15.6276 59.8536 15.9274 60.4284 15.9274C61.0093 15.9274 61.3642 15.6276 61.4934 15.0279L63.5438 5.47629Z" fill="white"/>
    <path d="M73.1484 15.028C72.6556 17.3204 71.142 18.4692 68.6075 18.4745C66.4895 18.4745 65.4307 17.6706 65.4307 16.0627C65.4307 15.7496 65.4718 15.4047 65.554 15.028L68.2907 2.28445H71.2214L68.4844 15.028C68.3552 15.6276 68.5782 15.9274 69.1533 15.9274C69.7339 15.9274 70.089 15.6276 70.218 15.028L72.955 2.28445H75.8854L73.1484 15.028Z" fill="white"/>
    <path d="M76.331 5.47629C76.8238 3.18389 78.3346 2.03769 80.8632 2.03769C82.9871 2.03769 84.0487 2.84161 84.0487 4.4495C84.0487 4.76256 84.0079 5.10484 83.9257 5.47629L83.4416 7.73684H80.5112L80.9953 5.47629C81.1242 4.88197 80.9012 4.58215 80.3264 4.57685H80.3087C79.7396 4.57685 79.3907 4.87665 79.2614 5.47629L78.9623 6.89312C78.8215 7.54051 79.3966 8.3524 80.6872 9.32879C82.0718 10.3636 82.6086 11.6053 82.2977 13.0539L81.8753 15.0279C81.3825 17.3256 79.8716 18.4745 77.3431 18.4745C75.2192 18.4692 74.1572 17.6626 74.1572 16.0547C74.1572 15.7417 74.1983 15.3994 74.2806 15.0279L74.7647 12.7674H77.6951L77.211 15.0279C77.082 15.6276 77.3079 15.9274 77.8885 15.9274C78.4636 15.9274 78.8156 15.6276 78.9446 15.0279L79.3318 13.245C79.4785 12.5392 78.9066 11.6981 77.6159 10.7218C76.2313 9.68696 75.6973 8.42668 76.0142 6.94087L76.331 5.47629Z" fill="white"/>
    <path d="M85.8314 2.28445H92.7309L92.1851 4.8236H88.2164L87.3273 8.97857H90.7419L90.1877 11.5257H86.7731L85.8841 15.6807H89.8531L89.3076 18.2198H82.4082L85.8314 2.28445Z" fill="white"/>
  </g>
  <defs>
    <clipPath id="clip0_704_1469">
      <rect width="98" height="20.6316" fill="white"/>
    </clipPath>
  </defs>
</svg>
