<svg width="18" height="18" viewBox="0 0 18 18" fill="none" xmlns="http://www.w3.org/2000/svg">
  <path fill-rule="evenodd" clip-rule="evenodd" d="M9 1.61513C10.1984 1.57018 11.3985 1.60356 12.5925 1.71505C13.1717 1.70794 13.7471 1.80962 14.2889 2.0148C15.0362 2.36311 15.6369 2.96376 15.9852 3.71114C16.1904 4.25285 16.2921 4.82826 16.285 5.40748C16.285 6.30561 16.3849 6.60536 16.3849 9C16.4298 10.1984 16.3964 11.3985 16.285 12.5925C16.2921 13.1717 16.1904 13.7471 15.9852 14.2889C15.6369 15.0362 15.0362 15.6369 14.2889 15.9852C13.7471 16.1904 13.1717 16.2921 12.5925 16.285C11.6944 16.285 11.3946 16.3849 9 16.3849C7.8016 16.4298 6.60154 16.3964 5.40748 16.285C4.82826 16.2921 4.25285 16.1904 3.71114 15.9852C2.96376 15.6369 2.36311 15.0362 2.0148 14.2889C1.80962 13.7471 1.70794 13.1717 1.71505 12.5925C1.71505 11.6944 1.61513 11.3946 1.61513 9C1.57018 7.8016 1.60356 6.60154 1.71505 5.40748C1.70794 4.82826 1.80962 4.25285 2.0148 3.71114C2.18891 3.34105 2.42508 3.00349 2.7131 2.7131C2.94699 2.36395 3.30298 2.11488 3.71114 2.0148C4.25285 1.80962 4.82826 1.70794 5.40748 1.71505C6.60154 1.60356 7.8016 1.57018 9 1.61513ZM9 0.0187086C7.76831 -0.0251888 6.53508 0.00818228 5.30757 0.118625C4.55781 0.116823 3.81402 0.251885 3.11276 0.51717C2.50722 0.714741 1.95917 1.05737 1.51634 1.51522C1.05793 1.95824 0.714899 2.5067 0.51717 3.11276C0.204133 3.79992 0.0671631 4.55422 0.118625 5.30757C0.00818228 6.53508 -0.0251888 7.76831 0.0187086 9C-0.0251888 10.2317 0.00818228 11.4649 0.118625 12.6924C0.117045 13.4426 0.25249 14.1868 0.518293 14.8884C0.715863 15.4939 1.05849 16.042 1.51634 16.4848C1.95917 16.9426 2.50722 17.2853 3.11276 17.4828C3.8143 17.7486 4.55849 17.8841 5.30869 17.8825C6.53585 17.9925 7.76871 18.0255 9 17.9813C10.2317 18.0252 11.4649 17.9918 12.6924 17.8814C13.4426 17.883 14.1868 17.7475 14.8884 17.4817C15.4894 17.2746 16.0354 16.9334 16.485 16.4838C16.9345 16.0343 17.2758 15.4883 17.4828 14.8872C17.7486 14.1857 17.8841 13.4415 17.8825 12.6913C17.8814 11.6944 17.9813 11.3946 17.9813 9C18.0252 7.76831 17.9918 6.53508 17.8814 5.30757C17.883 4.55736 17.7475 3.81318 17.4817 3.11164C17.2841 2.5061 16.9415 1.95804 16.4837 1.51522C16.0408 1.05737 15.4928 0.714741 14.8872 0.51717C14.186 0.251885 13.4422 0.116823 12.6924 0.118625C11.4649 0.00818228 10.2317 -0.0251888 9 0.0187086ZM9 4.40944C8.3944 4.39942 7.79296 4.51131 7.23148 4.73846C6.67 4.96561 6.15995 5.30338 5.73166 5.73166C5.30338 6.15995 4.96561 6.67 4.73846 7.23148C4.51131 7.79296 4.39942 8.3944 4.40944 9C4.40944 9.90793 4.67867 10.7955 5.18309 11.5504C5.6875 12.3053 6.40445 12.8937 7.24327 13.2411C8.08208 13.5886 9.00509 13.6795 9.89558 13.5024C10.7861 13.3252 11.604 12.888 12.246 12.246C12.888 11.604 13.3252 10.7861 13.5024 9.89558C13.6795 9.00509 13.5886 8.08208 13.2411 7.24327C12.8937 6.40445 12.3053 5.6875 11.5504 5.18309C10.7955 4.67867 9.90793 4.40944 9 4.40944ZM9 11.9941C8.60479 12.0015 8.21217 11.929 7.8456 11.7811C7.47903 11.6332 7.14604 11.413 6.86654 11.1335C6.58704 10.854 6.36676 10.521 6.21888 10.1544C6.071 9.78783 5.99855 9.39521 6.00586 9C5.99855 8.60479 6.071 8.21217 6.21888 7.8456C6.36676 7.47903 6.58704 7.14604 6.86654 6.86654C7.14604 6.58704 7.47903 6.36676 7.8456 6.21888C8.21217 6.071 8.60479 5.99855 9 6.00586C9.39521 5.99855 9.78783 6.071 10.1544 6.21888C10.521 6.36676 10.854 6.58704 11.1335 6.86654C11.413 7.14604 11.6332 7.47903 11.7811 7.8456C11.929 8.21217 12.0015 8.60479 11.9941 9C12.0015 9.39521 11.929 9.78783 11.7811 10.1544C11.6332 10.521 11.413 10.854 11.1335 11.1335C10.854 11.413 10.521 11.6332 10.1544 11.7811C9.78783 11.929 9.39521 12.0015 9 11.9941ZM13.7904 3.11276C13.5732 3.11276 13.361 3.17716 13.1804 3.2978C12.9998 3.41845 12.8591 3.58993 12.776 3.79055C12.6929 3.99118 12.6712 4.21194 12.7135 4.42493C12.7559 4.63791 12.8605 4.83355 13.014 4.9871C13.1676 5.14066 13.3632 5.24523 13.5762 5.28759C13.7892 5.32996 14.0099 5.30821 14.2106 5.22511C14.4112 5.14201 14.5827 5.00128 14.7033 4.82072C14.824 4.64016 14.8884 4.42788 14.8884 4.21073C14.886 3.92025 14.7696 3.64235 14.5642 3.43694C14.3588 3.23154 14.0809 3.11511 13.7904 3.11276Z" fill="white"/>
</svg>
