<svg width="19" height="18" viewBox="0 0 19 18" fill="none" xmlns="http://www.w3.org/2000/svg">
<path d="M2.71387 6.87876C2.71384 5.82782 2.98852 4.79323 3.51338 3.86736C4.03825 2.9415 4.79697 2.15318 5.7218 1.5728C6.64662 0.992414 7.70876 0.638035 8.81338 0.541301C9.918 0.444567 11.0307 0.60849 12.0522 1.01843C13.0736 1.42837 13.972 2.07158 14.6671 2.8906C15.3623 3.70963 15.8325 4.67899 16.0358 5.71213C16.2391 6.74528 16.1692 7.81004 15.8323 8.81134C15.4954 9.81265 14.902 10.7193 14.1051 11.4504C13.8778 11.6583 13.7032 11.8747 13.5979 12.107L12.7447 13.9834C12.7015 14.0785 12.6297 14.1595 12.5384 14.2165C12.4471 14.2734 12.3401 14.3037 12.2308 14.3038H6.63262C6.52311 14.3039 6.41595 14.2737 6.3244 14.2168C6.23286 14.1598 6.16095 14.0787 6.11758 13.9834L5.26554 12.106C5.14354 11.858 4.97119 11.6353 4.75834 11.4504C4.11076 10.8577 3.59596 10.1473 3.24469 9.36184C2.89341 8.57635 2.71288 7.73184 2.71387 6.87876ZM6.0728 15.8948C6.0728 15.7542 6.13178 15.6193 6.23677 15.5198C6.34175 15.4203 6.48414 15.3645 6.63262 15.3645H12.2308C12.3793 15.3645 12.5217 15.4203 12.6267 15.5198C12.7317 15.6193 12.7906 15.7542 12.7906 15.8948C12.7906 16.0355 12.7317 16.1704 12.6267 16.2698C12.5217 16.3693 12.3793 16.4252 12.2308 16.4252L11.98 16.8993C11.8871 17.0755 11.7443 17.2237 11.5675 17.3273C11.3907 17.4309 11.1869 17.4858 10.9791 17.4859H7.88438C7.6765 17.4858 7.47276 17.4309 7.29598 17.3273C7.11919 17.2237 6.97634 17.0755 6.88342 16.8993L6.63262 16.4252C6.48414 16.4252 6.34175 16.3693 6.23677 16.2698C6.13178 16.1704 6.0728 16.0355 6.0728 15.8948Z" fill="url(#paint0_linear_948_5857)"/>
<defs>
<linearGradient id="paint0_linear_948_5857" x1="9.44179" y1="0.514282" x2="9.44176" y2="15.0614" gradientUnits="userSpaceOnUse">
<stop stop-color="#F2BAFF"/>
<stop offset="1" stop-color="#E9FF63"/>
</linearGradient>
</defs>
</svg>
