<svg width="18" height="18" viewBox="0 0 18 18" fill="none" xmlns="http://www.w3.org/2000/svg">
  <g clip-path="url(#clip0_717_1181)">
    <path d="M4.08709 17.9995V5.85495H0.228624V17.9995H4.08709ZM2.15835 4.19582C3.50387 4.19582 4.34139 3.26325 4.34139 2.09786C4.31632 0.90619 3.50392 -0.000488281 2.18389 -0.000488281C0.864062 -0.000488281 0.000976562 0.906208 0.000976562 2.09786C0.000976562 3.26331 0.838288 4.19582 2.13317 4.19582H2.15823H2.15835ZM6.22273 17.9995H10.0812V11.2174C10.0812 10.8544 10.1063 10.4918 10.2082 10.2324C10.4871 9.50716 11.122 8.75606 12.1878 8.75606C13.5841 8.75606 14.1426 9.86976 14.1426 11.5024V17.9994H18.0008V11.0359C18.0008 7.30551 16.0973 5.56983 13.5586 5.56983C11.4772 5.56983 10.5632 6.78702 10.0555 7.61605H10.0813V5.85469H6.22282C6.27346 6.99427 6.22282 17.9993 6.22282 17.9993L6.22273 17.9995Z" fill="white"/>
  </g>
  <defs>
    <clipPath id="clip0_717_1181">
      <rect width="18" height="18" fill="white"/>
    </clipPath>
  </defs>
</svg>
