<svg width="19" height="20" viewBox="0 0 19 20" fill="none" xmlns="http://www.w3.org/2000/svg">
<path d="M16.548 7.0385C16.1644 6.12499 15.6064 5.29468 14.9051 4.59384C14.2058 3.89178 13.3752 3.3336 12.4604 2.95099C11.5232 2.55714 10.5163 2.35525 9.49937 2.35732H9.46518C8.43089 2.36243 7.43079 2.56715 6.48881 2.96976C5.58183 3.35629 4.75901 3.91546 4.06634 4.61602C3.3718 5.31529 2.82019 6.14269 2.44225 7.05214C2.04993 7.99787 1.85114 9.01235 1.85757 10.0359C1.8627 11.2198 2.14649 12.3952 2.67646 13.4461V16.0392C2.67646 16.4725 3.02863 16.8239 3.46116 16.8239H6.05629C7.1143 17.3567 8.28183 17.637 9.46689 17.6428H9.50279C10.5251 17.6428 11.515 17.4449 12.4484 17.0577C13.3586 16.6796 14.1861 16.1279 14.8845 15.4336C15.5889 14.7358 16.1428 13.9204 16.5309 13.0111C16.9326 12.0694 17.1378 11.068 17.1429 10.0342C17.1463 8.99524 16.9446 7.98702 16.548 7.0385ZM6.08706 10.8189C5.63573 10.8189 5.26818 10.4521 5.26818 10.0001C5.26818 9.54798 5.63573 9.18119 6.08706 9.18119C6.53839 9.18119 6.90595 9.54798 6.90595 10.0001C6.90595 10.4521 6.5401 10.8189 6.08706 10.8189ZM9.49937 10.8189C9.04805 10.8189 8.68049 10.4521 8.68049 10.0001C8.68049 9.54798 9.04805 9.18119 9.49937 9.18119C9.9507 9.18119 10.3183 9.54798 10.3183 10.0001C10.3183 10.4521 9.9507 10.8189 9.49937 10.8189ZM12.9117 10.8189C12.4604 10.8189 12.0928 10.4521 12.0928 10.0001C12.0928 9.54798 12.4604 9.18119 12.9117 9.18119C13.363 9.18119 13.7306 9.54798 13.7306 10.0001C13.7306 10.4521 13.363 10.8189 12.9117 10.8189Z" fill="url(#paint0_linear_948_5853)"/>
<defs>
<linearGradient id="paint0_linear_948_5853" x1="9.51163" y1="2.3573" x2="9.51161" y2="15.4592" gradientUnits="userSpaceOnUse">
<stop stop-color="#F2BAFF"/>
<stop offset="1" stop-color="#E9FF63"/>
</linearGradient>
</defs>
</svg>
