<?xml version="1.0" standalone="no"?>
<!DOCTYPE svg PUBLIC "-//W3C//DTD SVG 20010904//EN"
 "http://www.w3.org/TR/2001/REC-SVG-20010904/DTD/svg10.dtd">
<svg version="1.0" xmlns="http://www.w3.org/2000/svg"
 width="512.000000pt" height="512.000000pt" viewBox="0 0 512.000000 512.000000"
 preserveAspectRatio="xMidYMid meet">

<g transform="translate(0.000000,512.000000) scale(0.100000,-0.100000)"
fill="#000000" stroke="none">
<path d="M3340 5071 c-54 -54 -114 -82 -240 -109 -65 -15 -150 -17 -635 -17
-627 0 -625 0 -775 -73 -141 -69 -245 -204 -291 -379 -37 -141 -25 -431 31
-701 l18 -92 -23 -43 c-40 -71 -58 -169 -51 -273 11 -144 40 -232 105 -319 45
-59 97 -97 177 -130 l57 -23 32 -89 c60 -169 144 -313 249 -429 l46 -52 -15
-88 c-16 -94 -74 -304 -83 -304 -3 0 -47 40 -98 90 -76 75 -97 90 -123 90 -19
0 -101 -35 -220 -94 -129 -65 -207 -98 -248 -106 -442 -80 -753 -472 -730
-920 20 -384 277 -698 659 -809 46 -13 62 -24 90 -61 41 -55 113 -105 181
-125 76 -23 2158 -23 2234 0 69 20 141 72 178 126 27 41 36 47 99 63 99 26
250 105 331 173 97 81 167 171 225 288 80 162 109 322 89 488 -47 391 -323
693 -704 772 -60 12 -124 38 -267 111 -124 62 -198 94 -220 94 -29 0 -46 -13
-123 -90 -49 -50 -93 -90 -97 -90 -17 0 -98 314 -98 382 0 14 12 35 26 49 86
78 202 273 260 434 17 49 38 93 45 97 8 4 40 18 72 32 172 75 265 259 255 510
-4 99 -8 119 -35 178 l-31 67 24 88 c60 216 84 466 54 558 -24 75 -113 186
-200 250 l-47 34 5 133 c6 174 -15 302 -53 336 -43 36 -79 29 -135 -27z m25
-311 c-19 -171 -81 -277 -181 -310 -41 -14 -193 -11 -547 11 -160 10 -233 10
-322 2 -426 -43 -630 -243 -681 -665 -10 -90 -26 -52 -59 147 -24 144 -34 321
-24 415 22 223 117 343 309 396 59 16 120 18 630 19 537 1 570 2 655 22 50 11
117 31 150 44 l60 24 8 -25 c4 -14 5 -50 2 -80z m158 -353 c30 -29 62 -68 73
-87 34 -64 19 -240 -40 -468 -37 -142 -43 -140 -56 18 -15 161 -50 290 -120
431 l-22 46 46 47 c25 26 46 52 46 57 0 20 21 7 73 -44z m-778 -122 c116 -9
265 -15 333 -13 l123 2 21 -34 c34 -56 77 -184 95 -283 12 -69 16 -151 16
-327 0 -236 -13 -384 -49 -560 -49 -237 -167 -465 -313 -602 -119 -113 -242
-161 -411 -160 -477 1 -784 555 -757 1367 8 254 47 375 152 474 145 137 331
169 790 136z m-1129 -713 c7 -4 14 -57 18 -127 4 -66 13 -166 20 -221 10 -91
10 -100 -4 -92 -26 16 -67 80 -85 133 -20 58 -24 243 -7 288 11 26 35 35 58
19z m1965 -34 c15 -57 6 -230 -16 -290 -9 -26 -35 -67 -56 -90 l-40 -43 6 45
c18 147 25 225 25 307 0 77 3 94 18 102 35 21 51 13 63 -31z m-1333 -1332 c65
-33 139 -53 238 -67 132 -17 294 11 416 72 l38 19 5 -22 c28 -132 49 -209 79
-293 27 -77 32 -103 23 -112 -40 -38 -463 -396 -474 -400 -10 -4 -493 399
-493 411 0 2 18 57 39 122 22 66 48 158 58 207 9 48 19 87 21 87 1 0 24 -11
50 -24z m-443 -367 c55 -56 210 -196 345 -312 135 -115 253 -217 263 -227 17
-16 14 -20 -79 -90 l-97 -72 -358 358 -359 359 83 42 c45 23 87 42 92 42 6 1
55 -44 110 -100z m1725 61 c44 -22 80 -44 80 -48 0 -4 -159 -166 -354 -361
l-355 -354 -95 71 c-53 40 -96 74 -96 77 0 2 123 109 273 238 149 130 312 276
362 326 49 50 93 91 98 91 4 0 43 -18 87 -40z m-1790 -516 c212 -212 403 -399
424 -415 60 -44 79 -39 199 51 59 44 109 80 112 80 3 0 5 -209 5 -465 l0 -465
-482 0 c-447 0 -486 2 -523 19 -97 44 -104 71 -105 419 0 267 -1 283 -20 302
-28 28 -69 36 -99 19 -48 -27 -51 -46 -51 -311 l0 -247 -62 25 c-338 138 -522
517 -417 861 76 248 260 427 509 492 41 11 86 20 100 20 20 1 103 -77 410
-385z m2215 351 c237 -79 414 -276 471 -523 20 -84 19 -233 -1 -319 -48 -207
-197 -389 -396 -483 -107 -50 -99 -68 -99 225 0 241 -1 256 -20 275 -43 43
-110 34 -137 -20 -9 -18 -13 -102 -13 -309 l0 -284 -25 -43 c-16 -28 -39 -49
-68 -63 -42 -20 -56 -21 -530 -21 l-487 0 0 465 c0 256 4 465 8 465 4 0 56
-36 116 -80 81 -60 116 -80 139 -80 28 0 76 45 447 416 l415 415 54 -6 c30 -3
86 -16 126 -30z"/>
</g>
</svg>
