<svg width="90" height="17" viewBox="0 0 90 17" fill="none" xmlns="http://www.w3.org/2000/svg">
  <path d="M9.29054 0L8.67299 2.70879H6.26635L3.02419 17H0L3.24215 2.70879H0.835513L1.45307 0H9.29054Z" fill="white"/>
  <path d="M14.4954 10.9031L13.9778 17H10.9263L11.226 13.4675H9.00102L7.69326 17H4.6509L6.89407 10.9286L11.2169 0H15.1402L14.4954 10.9031ZM11.4531 10.7502L11.8981 5.6044L10 10.7502H11.4531Z" fill="white"/>
  <path d="M14.4148 17L18.2745 0H21.2987L18.0565 14.2912H22.1524L21.5348 17H14.4148Z" fill="white"/>
  <path d="M25.8224 0H32.9425L32.3249 2.70879H28.2291L27.2301 7.14136H30.7538L30.1362 9.85864H26.6125L25.6045 14.2912H29.7003L29.0828 17H21.9627L25.8224 0Z" fill="white"/>
  <path d="M33.7337 0H36.7215L36.8396 8.37263L38.7377 0H41.5711L37.7114 17H34.7236L34.6509 8.85664L32.7982 17H29.8739L33.7337 0Z" fill="white"/>
  <path d="M49.9364 0L49.3189 2.70879H46.9122L43.6701 17H40.6459L43.888 2.70879H41.4814L42.099 0H49.9364Z" fill="white"/>
  <path d="M57.6479 12.508L62.1069 0H65.1584L62.9152 6.0969L58.6014 17H54.6782L55.6317 7.7952L52.4168 17H48.4935L49.1293 6.07992L49.6469 0H52.6893L51.4632 12.508L55.9223 0H58.8739L57.6479 12.508Z" fill="white"/>
  <path d="M65.5863 0H72.7063L72.0888 2.70879H67.993L66.994 7.14136H70.5177L69.9001 9.85864H66.3764L65.3683 14.2912H69.4642L68.8466 17H61.7266L65.5863 0Z" fill="white"/>
  <path d="M73.4975 0H80.6176L80 2.70879H75.9042L74.9052 7.14136H78.4289L77.8113 9.85864H74.2876L73.2796 14.2912H77.3754L76.7578 17H69.6378L73.4975 0Z" fill="white"/>
  <path d="M84.6055 8.5L86.1403 17H82.9072L82.108 10.2238L80.5732 17H77.549L81.4088 0H84.4329L82.8981 6.75075L86.7669 0H90L84.6055 8.5Z" fill="white"/>
</svg>
