<svg width="18" height="15" viewBox="0 0 18 15" fill="none" xmlns="http://www.w3.org/2000/svg">
  <path fill-rule="evenodd" clip-rule="evenodd" d="M5.70038 14.6004C7.08277 14.6128 8.45379 14.3497 9.73337 13.8264C11.0129 13.3031 12.1754 12.5301 13.1529 11.5525C14.1304 10.5749 14.9033 9.41233 15.4265 8.1327C15.9496 6.85307 16.2126 5.48202 16.2 4.09963V3.60013C16.8987 3.06815 17.5066 2.42645 18 1.7C17.3293 1.99151 16.6231 2.19313 15.8996 2.29963C16.6434 1.83256 17.2072 1.12759 17.4994 0.299375C16.7769 0.701655 16.0034 1.0044 15.1999 1.19938C14.8614 0.818456 14.4454 0.514363 13.9797 0.307518C13.514 0.100672 13.0094 -0.00413784 12.4999 0.000125004C11.5232 0.0149285 10.5906 0.409515 9.89987 1.10024C9.20914 1.79096 8.81455 2.72353 8.79975 3.70025C8.77704 3.97094 8.81114 4.24339 8.89987 4.50013C7.42823 4.4291 5.98876 4.04436 4.67793 3.37168C3.3671 2.69899 2.21518 1.75391 1.29937 0.59975C0.970275 1.17883 0.798095 1.83381 0.799873 2.49988C0.813072 3.10433 0.964033 3.6978 1.24126 4.23509C1.51848 4.77239 1.91466 5.23934 2.39962 5.60038C1.79863 5.58823 1.21178 5.41579 0.699752 5.10088C0.698815 5.95739 0.998703 6.78704 1.54707 7.445C2.09544 8.10296 2.85746 8.54745 3.70013 8.70088C3.37448 8.78874 3.03661 8.82257 2.7 8.801C2.46232 8.81696 2.22392 8.78285 2.00025 8.70088C2.24475 9.44198 2.71218 10.0895 3.33863 10.5548C3.96509 11.0202 4.71999 11.2807 5.50012 11.3008C4.18557 12.3275 2.56799 12.8901 0.899999 12.9005C0.596537 12.9167 0.292472 12.8829 0 12.8004C1.65493 14.0021 3.65542 14.6338 5.70038 14.6004Z" fill="white"/>
</svg>
