<svg width="20" height="20" viewBox="0 0 20 20" fill="none" xmlns="http://www.w3.org/2000/svg">
<path d="M10.001 2.31335C6.18612 2.31335 3.08301 5.41723 3.08301 9.23136C3.08301 11.7895 4.48198 14.0217 6.55201 15.2193L4.96317 16.2785C4.82596 16.37 4.72181 16.5032 4.66611 16.6584C4.61041 16.8137 4.60611 16.9827 4.65384 17.1405C4.70158 17.2984 4.79882 17.4367 4.93121 17.5351C5.06359 17.6334 5.22409 17.6866 5.38901 17.6867H14.613C14.778 17.6867 14.9386 17.6337 15.0711 17.5354C15.2036 17.4371 15.301 17.2988 15.3488 17.1409C15.3967 16.983 15.3924 16.8139 15.3368 16.6586C15.2811 16.5033 15.1769 16.37 15.0396 16.2785L13.4508 15.2193C15.5201 14.0217 16.919 11.7895 16.919 9.23136C16.919 5.41723 13.8159 2.31335 10.001 2.31335ZM10.001 14.612C7.03473 14.612 4.62034 12.1977 4.62034 9.23136C4.62034 6.26431 7.03473 3.85069 10.001 3.85069C12.9673 3.85069 15.3817 6.26431 15.3817 9.23136C15.3817 12.1977 12.9673 14.612 10.001 14.612Z" fill="url(#paint0_linear_948_5847)"/>
<path d="M10.0006 5.38794C7.88135 5.38794 6.15723 7.11206 6.15723 9.23128C6.15723 11.3505 7.88135 13.0746 10.0006 13.0746C12.1198 13.0746 13.8439 11.3505 13.8439 9.23128C13.8439 7.11206 12.1198 5.38794 10.0006 5.38794ZM10.0006 11.5373C8.72919 11.5373 7.69456 10.5027 7.69456 9.23128C7.69456 7.9599 8.72919 6.92527 10.0006 6.92527C11.2719 6.92527 12.3066 7.9599 12.3066 9.23128C12.3066 10.5027 11.2719 11.5373 10.0006 11.5373Z" fill="url(#paint1_linear_948_5847)"/>
<defs>
<linearGradient id="paint0_linear_948_5847" x1="10.0114" y1="2.31335" x2="10.0114" y2="15.4905" gradientUnits="userSpaceOnUse">
<stop stop-color="#F2BAFF"/>
<stop offset="1" stop-color="#E9FF63"/>
</linearGradient>
<linearGradient id="paint1_linear_948_5847" x1="10.0063" y1="5.38794" x2="10.0063" y2="11.9765" gradientUnits="userSpaceOnUse">
<stop stop-color="#F2BAFF"/>
<stop offset="1" stop-color="#E9FF63"/>
</linearGradient>
</defs>
</svg>
